#tb 0: 1/25
0,          0,          0,        1,   304128, 0x8cde13ed
0,          1,          1,        1,   304128, 0xc97fcaa2
0,          2,          2,        1,   304128, 0x8139eca3
0,          3,          3,        1,   304128, 0x295c016f
0,          4,          4,        1,   304128, 0x813a6cb3
0,          5,          5,        1,   304128, 0x0e1b51db
0,          6,          6,        1,   304128, 0x0c46f846
0,          7,          7,        1,   304128, 0xdf281767
0,          8,          8,        1,   304128, 0xfc37005b
0,          9,          9,        1,   304128, 0x0be5722a
0,         10,         10,        1,   304128, 0xc1618ec0
0,         11,         11,        1,   304128, 0xc6f0f9b9
0,         12,         12,        1,   304128, 0x6f015ad1
0,         13,         13,        1,   304128, 0xf17e4455
0,         14,         14,        1,   304128, 0xbcb31bc9
